# xmcd CD database file
#
# Track frame offsets:
#	150
#	25054
#	51047
#	77352
#	120840
#	144433
#
# Disc length: 2360 seconds
#
# Revision: 1
# Processed by: cddbd v1.5.2PL0 Copyright (c) Steve Scherf et al.
# Submitted via: CDex 1.91
#
DISCID=39093606
DTITLE=Lubos Andrst and Energit - Time's Arrow
DYEAR=2017
DGENRE=Blues
TTITLE0=Blue Dance
TTITLE1=Loneliness
TTITLE2=Imprints
TTITLE3=Freedom
TTITLE4=Time's Arrow
TTITLE5=Moth
EXTD=YEAR: 2017
EXTT0=
EXTT1=
EXTT2=
EXTT3=
EXTT4=
EXTT5=
PLAYORDER=
